#!OML:ASF F:\VICON\USERDATA\INSTALL\rory3\rory3.ASF
:FULLY-SPECIFIED
:DEGREES
1951
root -1.24303 15.8056 -3.7225 170.27 146.71 183.212
lowerback 22.2864 -0.935646 -3.693
upperback 11.732 -1.57583 -0.313481
thorax 0.491065 -0.809902 2.08976
lowerneck -14.0787 -13.7397 -16.7656
upperneck 11.8734 -17.3259 12.79
head 8.59762 -8.04774 4.5721
rclavicle -1.1281e-014 1.30204e-014
rhumerus -26.8894 18.1646 -87.5056
rradius 79.4603
rwrist 23.2299
rhand -31.7672 13.5855
rfingers 7.12502
rthumb -5.02399 -16.3349
lclavicle -1.1281e-014 1.30204e-014
lhumerus -26.3455 -0.807679 76.5919
lradius 84.2227
lwrist -15.4371
lhand -37.9001 9.81119
lfingers 7.12502
lthumb -10.9429 39.506
rfemur -54.5704 -29.6407 17.8296
rtibia 100.578
rfoot -6.81889 -1.65079
rtoes 0.90381
lfemur -91.4169 51.6962 -38.4031
ltibia 135.964
lfoot -10.2554 -16.0657
ltoes -15.1965
1952
root -1.23428 15.804 -3.7206 170.329 146.64 183.231
lowerback 22.343 -0.942846 -3.57484
upperback 11.6287 -1.56983 -0.294262
thorax 0.344412 -0.798964 2.04515
lowerneck -14.2745 -13.3909 -16.7257
upperneck 12.3638 -16.7725 12.3079
head 8.66007 -7.81242 4.49445
rclavicle -7.7526e-014 4.35338e-014
rhumerus -27.0832 18.0753 -87.5329
rradius 79.5188
rwrist 23.2811
rhand -31.7874 13.456
rfingers 7.12502
rthumb -5.04346 -16.464
lclavicle -7.7526e-014 4.35338e-014
lhumerus -26.3753 -0.658658 76.7467
lradius 84.1199
lwrist -15.8938
lhand -37.7727 9.6098
lfingers 7.12502
lthumb -10.8201 39.3111
rfemur -54.5743 -29.6751 17.7214
rtibia 100.588
rfoot -6.78301 -1.6454
rtoes 1.6706
lfemur -91.4752 51.5207 -38.561
ltibia 135.952
lfoot -10.1983 -15.7665
ltoes -15.1342
1953
root -1.22728 15.8036 -3.71729 170.302 146.557 183.19
lowerback 22.5318 -0.93157 -3.411
upperback 11.4748 -1.53682 -0.251905
thorax 0.0748801 -0.770787 1.99737
lowerneck -14.4411 -13.0511 -16.786
upperneck 12.963 -16.2381 11.9101
head 8.77794 -7.58618 4.45511
rclavicle -1.39398e-014 1.55052e-014
rhumerus -27.3664 17.9276 -87.557
rradius 79.615
rwrist 23.3751
rhand -31.6942 13.2171
rfingers 7.12502
rthumb -4.95349 -16.705
lclavicle -1.39398e-014 1.55052e-014
lhumerus -26.5898 -0.730018 76.9058
lradius 84.1649
lwrist -16.2309
lhand -37.6474 9.60022
lfingers 7.12502
lthumb -10.6992 39.3078
rfemur -54.4853 -29.7439 17.659
rtibia 100.597
rfoot -6.81033 -1.6896
rtoes 1.8774
lfemur -91.461 51.4736 -38.5677
ltibia 135.971
lfoot -10.128 -15.6433
ltoes -14.8734
1954
root -1.2199 15.8036 -3.71495 170.44 146.487 183.304
lowerback 22.5031 -0.911175 -3.38493
upperback 11.4184 -1.50707 -0.249357
thorax 0.0239588 -0.753693 1.9792
lowerneck -14.7103 -12.6749 -16.7789
upperneck 13.4359 -15.6481 11.576
head 8.86571 -7.32475 4.43295
rclavicle -6.53505e-014 4.73108e-014
rhumerus -27.4166 17.83 -87.4839
rradius 79.7163
rwrist 23.4058
rhand -31.4544 12.9355
rfingers 7.12502
rthumb -4.72196 -16.9919
lclavicle -6.53505e-014 4.73108e-014
lhumerus -26.6458 -0.837732 77.0159
lradius 84.2005
lwrist -16.3727
lhand -37.6042 9.56455
lfingers 7.12502
lthumb -10.6575 39.2743
rfemur -54.5557 -29.8103 17.5058
rtibia 100.634
rfoot -6.79481 -1.70731
rtoes 1.39746
lfemur -91.4849 51.3179 -38.7589
ltibia 135.966
lfoot -10.0928 -15.5226
ltoes -14.8721
1955
root -1.21261 15.8018 -3.71181 170.56 146.442 183.353
lowerback 22.3394 -0.896323 -3.3459
upperback 11.4451 -1.47317 -0.224892
thorax 0.130748 -0.737979 1.97214
lowerneck -15.2715 -12.2132 -16.6072
upperneck 14.0644 -14.9446 11.2626
head 9.0321 -6.99063 4.39997
rclavicle -3.2054e-014 3.19049e-014
rhumerus -27.3325 17.705 -87.342
rradius 79.7824
rwrist 23.5619
rhand -31.0206 12.9195
rfingers 7.12502
rthumb -4.30306 -17.0168
lclavicle -3.2054e-014 3.19049e-014
lhumerus -26.5801 -0.905098 77.1104
lradius 84.196
lwrist -16.438
lhand -37.6168 9.53043
lfingers 7.12502
lthumb -10.6696 39.2395
rfemur -54.6663 -29.8719 17.4419
rtibia 100.682
rfoot -6.75771 -1.70118
rtoes 1.09339
lfemur -91.5904 51.1643 -38.919
ltibia 135.976
lfoot -10.0468 -15.4019
ltoes -15.2145
1956
root -1.20688 15.8009 -3.70669 170.514 146.388 183.298
lowerback 22.2803 -0.888376 -3.28261
upperback 11.4947 -1.44406 -0.151743
thorax 0.212469 -0.724328 2.00641
lowerneck -16.1442 -11.6316 -16.1752
upperneck 15.0294 -14.0781 10.7845
head 9.3167 -6.57222 4.28798
rclavicle -1.85367e-014 3.37934e-014
rhumerus -27.2885 17.5508 -87.1976
rradius 79.8497
rwrist 23.9178
rhand -30.7969 13.0913
rfingers 7.12502
rthumb -4.08704 -16.8492
lclavicle -1.85367e-014 3.37934e-014
lhumerus -26.4955 -0.878788 77.2417
lradius 84.1541
lwrist -16.5671
lhand -37.602 9.68736
lfingers 7.12502
lthumb -10.6554 39.3972
rfemur -54.5671 -29.9369 17.4126
rtibia 100.701
rfoot -6.76124 -1.62746
rtoes 0.990552
lfemur -91.543 51.161 -38.874
ltibia 135.977
lfoot -10.0251 -15.3642
ltoes -15.4473
1957
root -1.20204 15.8035 -3.70291 170.496 146.3 183.25
lowerback 22.2155 -0.893215 -3.22358
upperback 11.522 -1.4332 -0.071106
thorax 0.27398 -0.719878 2.05515
lowerneck -16.8146 -11.0435 -15.7584
upperneck 15.8006 -13.1963 10.2224
head 9.50189 -6.16773 4.1608
rclavicle -2.27608e-014 -6.36111e-015
rhumerus -27.318 17.3898 -87.0773
rradius 79.9939
rwrist 24.094
rhand -30.8413 13.1818
rfingers 7.12502
rthumb -4.12991 -16.7579
lclavicle -2.27608e-014 -6.36111e-015
lhumerus -26.3435 -0.7196 77.4329
lradius 83.977
lwrist -16.8239
lhand -37.5048 9.90503
lfingers 7.12502
lthumb -10.5616 39.6197
rfemur -54.4837 -30.018 17.3722
rtibia 100.719
rfoot -6.79797 -1.53336
rtoes 0.998734
lfemur -91.5037 51.1388 -38.852
ltibia 135.975
lfoot -10.0347 -15.3268
ltoes -15.5623
1958
root -1.19768 15.8049 -3.69909 170.439 146.263 183.088
lowerback 22.1226 -0.902577 -3.07156
upperback 11.5509 -1.41014 0.0369108
thorax 0.347698 -0.706588 2.07733
lowerneck -17.3594 -10.5514 -15.4404
upperneck 16.4337 -12.4245 9.63986
head 9.64771 -5.83049 4.02531
rclavicle 2.62396e-014 2.78299e-015
rhumerus -27.2524 17.2634 -86.9627
rradius 80.087
rwrist 24.1747
rhand -30.8964 12.9414
rfingers 7.12502
rthumb -4.18311 -16.9972
lclavicle 2.62396e-014 2.78299e-015
lhumerus -26.185 -0.530216 77.6336
lradius 83.8095
lwrist -17.0987
lhand -37.4099 9.98238
lfingers 7.12502
lthumb -10.47 39.7017
rfemur -54.4392 -30.0283 17.4856
rtibia 100.743
rfoot -6.86486 -1.46701
rtoes 1.30726
lfemur -91.6046 51.1892 -38.7887
ltibia 135.986
lfoot -9.99315 -15.3361
ltoes -15.6093
1959
root -1.19453 15.8033 -3.69431 170.414 146.243 183.044
lowerback 22.0605 -0.8674 -3.03781
upperback 11.6066 -1.35156 0.119219
thorax 0.437349 -0.679836 2.13201
lowerneck -17.9378 -10.0932 -15.0802
upperneck 17.0789 -11.7058 9.06304
head 9.81736 -5.51745 3.87398
rclavicle 4.45278e-014 -1.92821e-014
rhumerus -27.1451 17.1567 -86.8457
rradius 80.1774
rwrist 24.3678
rhand -30.8976 12.6787
rfingers 7.12502
rthumb -4.1843 -17.26
lclavicle 4.45278e-014 -1.92821e-014
lhumerus -26.0466 -0.471326 77.7688
lradius 83.7331
lwrist -17.2239
lhand -37.4083 10.0115
lfingers 7.12502
lthumb -10.4686 39.7309
rfemur -54.3795 -30.0502 17.492
rtibia 100.804
rfoot -6.95812 -1.36495
rtoes 1.65935
lfemur -91.6451 51.2459 -38.8017
ltibia 135.995
lfoot -10.0086 -15.2941
ltoes -15.6904
1960
root -1.19193 15.802 -3.6909 170.535 146.195 183.238
lowerback 22.0547 -0.815846 -3.17661
upperback 11.6042 -1.30946 0.136492
thorax 0.440744 -0.665348 2.22033
lowerneck -18.4167 -9.6032 -14.7245
upperneck 17.7419 -10.9564 8.49041
head 9.98152 -5.19693 3.7329
rclavicle 5.69518e-014 -2.5842e-014
rhumerus -27.1557 17.0291 -86.7924
rradius 80.2266
rwrist 24.6135
rhand -30.7701 12.7539
rfingers 7.12502
rthumb -4.06111 -17.1871
lclavicle 5.69518e-014 -2.5842e-014
lhumerus -25.9607 -0.438627 77.8639
lradius 83.6456
lwrist -17.279
lhand -37.3142 10.0173
lfingers 7.12502
lthumb -10.3777 39.7412
rfemur -54.3833 -30.1218 17.2779
rtibia 100.869
rfoot -6.96892 -1.26705
rtoes 1.47856
lfemur -91.5557 51.2194 -38.9481
ltibia 135.986
lfoot -10.0073 -15.2328
ltoes -15.4186
1961
root -1.18951 15.8008 -3.68895 170.575 146.145 183.231
lowerback 22.0858 -0.791368 -3.0978
upperback 11.5368 -1.26567 0.188113
thorax 0.347151 -0.639687 2.22326
lowerneck -18.783 -9.111 -14.4085
upperneck 18.4464 -10.2169 7.95413
head 10.1555 -4.88655 3.61205
rclavicle -1.40938e-013 2.38542e-014
rhumerus -27.3033 16.8324 -86.7828
rradius 80.3078
rwrist 24.8275
rhand -30.7364 12.5988
rfingers 7.12502
rthumb -4.02864 -17.3429
lclavicle -1.40938e-013 2.38542e-014
lhumerus -25.8948 -0.483784 77.9983
lradius 83.4773
lwrist -17.3202
lhand -37.2085 10.0124
lfingers 7.12502
lthumb -10.2757 39.7414
rfemur -54.4115 -30.1585 17.2669
rtibia 100.911
rfoot -6.98796 -1.20013
rtoes 1.34385
lfemur -91.6692 51.2318 -39.0324
ltibia 136.014
lfoot -10.0056 -15.209
ltoes -15.3475
1962
root -1.18746 15.8006 -3.68775 170.489 146.086 183.052
lowerback 22.1182 -0.7831 -2.89566
upperback 11.5109 -1.21556 0.312763
thorax 0.296191 -0.60847 2.23244
lowerneck -19.152 -8.61717 -14.252
upperneck 19.0908 -9.44972 7.5425
head 10.3295 -4.56408 3.56478
rclavicle 4.31363e-014 3.37934e-015
rhumerus -27.4509 16.6816 -86.7059
rradius 80.5033
rwrist 24.9106
rhand -30.7906 12.2246
rfingers 7.12502
rthumb -4.08096 -17.716
lclavicle 4.31363e-014 3.37934e-015
lhumerus -25.8654 -0.586067 78.1742
lradius 83.385
lwrist -17.3306
lhand -37.2345 10.2846
lfingers 7.12502
lthumb -10.3009 40.0124
rfemur -54.3656 -30.178 17.3867
rtibia 100.929
rfoot -7.01052 -1.15333
rtoes 0.897358
lfemur -91.8013 51.2829 -38.977
ltibia 136.041
lfoot -9.95398 -15.2091
ltoes -15.2353
1963
root -1.18643 15.8 -3.68445 170.367 146.025 182.961
lowerback 22.1858 -0.743674 -2.81209
upperback 11.5446 -1.14499 0.413384
thorax 0.295994 -0.571898 2.27882
lowerneck -19.5364 -8.10225 -13.9802
upperneck 19.6656 -8.66925 7.09605
head 10.4781 -4.2335 3.4882
rclavicle 6.59965e-014 -7.13637e-014
rhumerus -27.5595 16.4609 -86.5799
rradius 80.7341
rwrist 24.9765
rhand -30.5766 12.3599
rfingers 7.12502
rthumb -3.87432 -17.5846
lclavicle 6.59965e-014 -7.13637e-014
lhumerus -25.8044 -0.739013 78.2901
lradius 83.3072
lwrist -17.3068
lhand -37.4668 10.3876
lfingers 7.12502
lthumb -10.525 40.1041
rfemur -54.2271 -30.2312 17.3885
rtibia 100.938
rfoot -7.01635 -1.10208
rtoes 0.717641
lfemur -91.7196 51.3562 -38.8302
ltibia 136.055
lfoot -9.92096 -15.2541
ltoes -15.3029
1964
root -1.18471 15.7994 -3.67973 170.332 145.957 182.971
lowerback 22.2294 -0.706128 -2.77658
upperback 11.5346 -1.0892 0.448385
thorax 0.26004 -0.54232 2.2853
lowerneck -19.9562 -7.57554 -13.5938
upperneck 20.3936 -7.89084 6.59265
head 10.6893 -3.90568 3.37254
rclavicle 5.86415e-015 -1.59028e-014
rhumerus -27.6622 16.2045 -86.5072
rradius 80.8895
rwrist 25.1045
rhand -30.3801 12.4786
rfingers 7.12502
rthumb -3.68457 -17.4693
lclavicle 5.86415e-015 -1.59028e-014
lhumerus -25.7888 -0.899999 78.3654
lradius 83.2216
lwrist -17.266
lhand -37.4808 10.3442
lfingers 7.12502
lthumb -10.5385 40.06
rfemur -54.1238 -30.3085 17.3193
rtibia 100.946
rfoot -7.06134 -1.02061
rtoes 0.585325
lfemur -91.6287 51.3642 -38.7932
ltibia 136.055
lfoot -9.97379 -15.2256
ltoes -15.57
1965
root -1.18433 15.8071 -3.67968 170.463 145.869 183.053
lowerback 22.1257 -0.694547 -2.77847
upperback 11.511 -1.07267 0.463862
thorax 0.284264 -0.535045 2.29786
lowerneck -20.42 -7.04699 -13.2108
upperneck 21.1945 -7.08895 6.04757
head 10.942 -3.57613 3.24578
rclavicle 6.66923e-014 -9.54166e-015
rhumerus -27.6055 16.1038 -86.4249
rradius 80.9446
rwrist 25.0985
rhand -30.3743 12.1981
rfingers 7.12502
rthumb -3.67889 -17.7499
lclavicle 6.66923e-014 -9.54166e-015
lhumerus -25.6992 -1.0164 78.4545
lradius 83.087
lwrist -17.2716
lhand -37.4259 10.4262
lfingers 7.12502
lthumb -10.4856 40.1447
rfemur -54.3344 -30.2977 17.1802
rtibia 100.911
rfoot -6.90069 -1.1197
rtoes 0.380319
lfemur -91.6546 51.2759 -38.977
ltibia 135.992
lfoot -9.97025 -15.1428
ltoes -15.6191
